<svg xmlns="http://www.w3.org/2000/svg" width="36" height="36" viewBox="0 0 36 36" fill="none">
<path d="M18 36C8.0586 36 0 27.9414 0 18C0 8.0586 8.0586 0 18 0C27.9414 0 36 8.0586 36 18C36 27.9414 27.9414 36 18 36ZM15.5196 11.547C15.4113 11.4747 15.2854 11.4332 15.1553 11.4268C15.0252 11.4204 14.8959 11.4494 14.781 11.5107C14.6661 11.5721 14.57 11.6634 14.5029 11.775C14.4358 11.8866 14.4002 12.0144 14.4 12.1446V23.8554C14.4002 23.9856 14.4358 24.1134 14.5029 24.225C14.57 24.3366 14.6661 24.4279 14.781 24.4892C14.8959 24.5506 15.0252 24.5796 15.1553 24.5732C15.2854 24.5668 15.4113 24.5253 15.5196 24.453L24.3018 18.5994C24.4006 18.5337 24.4816 18.4446 24.5376 18.34C24.5936 18.2354 24.6229 18.1186 24.6229 18C24.6229 17.8814 24.5936 17.7646 24.5376 17.66C24.4816 17.5554 24.4006 17.4663 24.3018 17.4006L15.5178 11.547H15.5196Z"/>
</svg>