<svg xmlns="http://www.w3.org/2000/svg" viewBox="0 0 28 28" fill="none">
<path d="M16.2293 2.56238C15.3325 0.701539 12.6692 0.701535 11.7724 2.56238L9.4214 7.44047C9.40383 7.47693 9.36547 7.50786 9.31438 7.51453L3.90222 8.2209C1.85503 8.48809 1.0004 11.0112 2.52646 12.4455L6.48564 16.1667C6.51789 16.197 6.52938 16.2375 6.52251 16.2742L5.52857 21.5889C5.14352 23.6477 7.32954 25.1706 9.13287 24.2016L13.9307 21.6233C13.9741 21.6 14.0276 21.6 14.071 21.6233L18.8688 24.2016C20.6722 25.1706 22.8582 23.6478 22.4731 21.5889L21.4792 16.2742C21.4723 16.2375 21.4838 16.197 21.516 16.1667L25.4752 12.4455C27.0013 11.0112 26.1467 8.48809 24.0995 8.2209L18.6873 7.51453C18.6362 7.50786 18.5979 7.47693 18.5803 7.44047L16.2293 2.56238Z" />
</svg>