<svg xmlns="http://www.w3.org/2000/svg" viewBox="0 0 40 40" fill="none">
  <path d="M26.4644 5.00007L19.0656 12.399C18.5967 12.8678 18.3333 13.5037 18.3333 14.1667V19.1667C18.3333 20.5474 19.4526 21.6667 20.8333 21.6667H25.8333C26.4964 21.6667 27.1323 21.4033 27.6011 20.9345L35 13.5356C35 13.6213 35 13.7082 35 13.7964V26.2038C35 27.5725 35 28.6508 34.9291 29.5186C34.8568 30.4039 34.7065 31.1432 34.3642 31.815C33.8049 32.9126 32.9126 33.805 31.8149 34.3643C31.1431 34.7066 30.4038 34.8568 29.5185 34.9292C28.6508 35.0001 27.5725 35.0001 26.2037 35.0001H13.7963C12.4275 35.0001 11.3492 35.0001 10.4815 34.9292C9.59619 34.8568 8.85689 34.7066 8.18506 34.3643C7.08744 33.805 6.19506 32.9126 5.6358 31.815C5.29348 31.1432 5.14322 30.4039 5.07089 29.5186C4.99999 28.6508 4.99999 27.5725 5 26.2037V13.7964C4.99999 12.4276 4.99999 11.3493 5.07089 10.4815C5.14322 9.59624 5.29348 8.85694 5.6358 8.18511C6.19506 7.08749 7.08744 6.19511 8.18506 5.63585C8.85689 5.29353 9.59619 5.14327 10.4815 5.07094C11.3492 5.00004 12.4275 5.00005 13.7963 5.00005H26.2037C26.2918 5.00005 26.3787 5.00005 26.4644 5.00007Z" fill="url(#paint0_linear_4067_4931)"/>
  <path fill-rule="evenodd" clip-rule="evenodd" d="M33.9941 6.00597C32.9388 4.9507 31.2279 4.9507 30.1726 6.00598L21.6667 14.5119V18.3334H25.4882L33.9941 9.82746C35.0494 8.77219 35.0494 7.06125 33.9941 6.00597ZM35.1726 4.82746C33.4664 3.12131 30.7002 3.12132 28.9941 4.82746L20.2441 13.5775C20.0878 13.7337 20 13.9457 20 14.1667V19.1667C20 19.627 20.3731 20.0001 20.8333 20.0001H25.8333C26.0543 20.0001 26.2663 19.9123 26.4226 19.756L35.1726 11.006C36.8787 9.29982 36.8787 6.53361 35.1726 4.82746Z" fill="url(#paint1_linear_4067_4931)"/>
  <defs>
    <linearGradient id="paint0_linear_4067_4931" x1="20.7261" y1="3.9412" x2="20.7261" y2="35.0001" gradientUnits="userSpaceOnUse">
      <stop stop-color="white"/>
      <stop offset="1" stop-color="white" stop-opacity="0"/>
    </linearGradient>
    <linearGradient id="paint1_linear_4067_4931" x1="20.7261" y1="3.9412" x2="20.7261" y2="35.0001" gradientUnits="userSpaceOnUse">
      <stop stop-color="white"/>
      <stop offset="1" stop-color="white" stop-opacity="0"/>
    </linearGradient>
  </defs>
</svg>