<svg width="129" height="42" viewBox="0 0 129 42" fill="none" xmlns="http://www.w3.org/2000/svg">
<g clip-path="url(#clip0_108_769)">
<path d="M-0.000169754 7.00049V20.9989L12.1238 14.0009V9.05991e-05L-0.000169754 7.00049Z" fill="white"/>
<path d="M-0.00022316 34.9998L12.1238 27.9994V14.001L-0.00022316 20.999V34.9998Z" fill="white"/>
<path d="M24.2479 20.9988L12.1239 14.0008L-0.000146866 20.9988L12.1239 27.9992L24.2479 20.9988Z" fill="white"/>
<path d="M24.2479 20.9988L12.1239 14.0008L-0.000146866 20.9988L12.1239 27.9992L24.2479 20.9988Z" fill="black" fill-opacity="0.2" style="mix-blend-mode:screen"/>
<path d="M24.2479 7.00055L12.1239 14.0009V27.9993L24.2479 20.9989V7.00055Z" fill="white"/>
<path d="M24.2479 34.9998V20.9989L12.1239 27.9994V42.0002L24.2479 34.9998Z" fill="white"/>
</g>
<path d="M37.0893 19.0994V14.8828H39.1672V25.5H37.0893V21.1014H33.1458V25.5H31.0527V14.8828H33.1458V19.0994H37.0893ZM44.2944 21.1166V23.4979H48.7688V25.5H42.2013V14.8828H48.6929V16.8849H44.2944V19.1449H48.3138V21.1166H44.2944ZM60.5693 25.5H58.2942L57.6571 23.5889H53.4254L52.7884 25.5H50.5284L54.2445 14.8828H56.8381L60.5693 25.5ZM55.5489 17.2944L54.0928 21.6323H57.0049L55.5489 17.2944ZM64.755 14.8828V23.4979H68.8047V25.5H62.6619V14.8828H64.755ZM75.7146 14.8828H78.0808L74.4406 21.3593V25.5H72.3626V21.3593L68.7376 14.8828H71.1037L73.4092 19.3117L75.7146 14.8828ZM83.7851 25.7123C81.6769 25.7123 80.2056 24.7113 79.6141 23.0884L81.4038 22.0418C81.8134 23.1187 82.6324 23.6647 83.8458 23.6647C85.0137 23.6647 85.5446 23.1946 85.5446 22.5424C85.5446 22.1632 85.3777 21.875 85.044 21.6778C84.7103 21.4655 84.1188 21.238 83.2543 20.9953C82.2987 20.7071 81.7224 20.4796 81.055 20.0094C80.4028 19.524 80.0539 18.796 80.0539 17.8253C80.0539 16.8697 80.3876 16.0962 81.0702 15.535C81.7527 14.9586 82.5869 14.6705 83.5425 14.6705C85.2564 14.6705 86.6063 15.5502 87.3343 17.0517L85.5749 18.068C85.1502 17.1579 84.4677 16.7029 83.5425 16.7029C82.6779 16.7029 82.147 17.1428 82.147 17.7646C82.147 18.0983 82.2836 18.3713 82.5566 18.5837C82.8448 18.7808 83.3756 19.0083 84.1643 19.251L84.8924 19.4937C85.0592 19.5392 85.2867 19.6302 85.5749 19.7516C85.8631 19.8577 86.0906 19.9639 86.2423 20.0701C86.5608 20.2672 87.0461 20.6464 87.2433 21.0104C87.4708 21.3745 87.6377 21.9053 87.6377 22.512C87.6377 23.4979 87.2736 24.2714 86.5608 24.8478C85.8479 25.4242 84.9227 25.7123 83.7851 25.7123ZM92.0836 21.1166V23.4979H96.558V25.5H89.9905V14.8828H96.4822V16.8849H92.0836V19.1449H96.103V21.1166H92.0836ZM105.238 21.3593V14.8828H107.331V25.5H105.738L101.188 19.0083V25.5H99.0951V14.8828H100.688L105.238 21.3593ZM113.824 25.7123C111.716 25.7123 110.245 24.7113 109.653 23.0884L111.443 22.0418C111.853 23.1187 112.672 23.6647 113.885 23.6647C115.053 23.6647 115.584 23.1946 115.584 22.5424C115.584 22.1632 115.417 21.875 115.083 21.6778C114.75 21.4655 114.158 21.238 113.293 20.9953C112.338 20.7071 111.762 20.4796 111.094 20.0094C110.442 19.524 110.093 18.796 110.093 17.8253C110.093 16.8697 110.427 16.0962 111.109 15.535C111.792 14.9586 112.626 14.6705 113.582 14.6705C115.296 14.6705 116.645 15.5502 117.373 17.0517L115.614 18.068C115.189 17.1579 114.507 16.7029 113.582 16.7029C112.717 16.7029 112.186 17.1428 112.186 17.7646C112.186 18.0983 112.323 18.3713 112.596 18.5837C112.884 18.7808 113.415 19.0083 114.203 19.251L114.932 19.4937C115.098 19.5392 115.326 19.6302 115.614 19.7516C115.902 19.8577 116.13 19.9639 116.281 20.0701C116.6 20.2672 117.085 20.6464 117.282 21.0104C117.51 21.3745 117.677 21.9053 117.677 22.512C117.677 23.4979 117.313 24.2714 116.6 24.8478C115.887 25.4242 114.962 25.7123 113.824 25.7123ZM122.123 21.1166V23.4979H126.597V25.5H120.03V14.8828H126.521V16.8849H122.123V19.1449H126.142V21.1166H122.123Z" fill="white"/>
<defs>
<clipPath id="clip0_108_769">
<rect width="24.248" height="42" fill="white"/>
</clipPath>
</defs>
</svg>
