<svg xmlns="http://www.w3.org/2000/svg" viewBox="0 0 64 64" fill="currentColor">
  <!-- Center person (front) -->
  <circle cx="32" cy="16" r="7"/>
  <path d="M32 25c-8 0-14 6-14 13v4c0 1.1.9 2 2 2h24c1.1 0 2-.9 2-2v-4c0-7-6-13-14-13z"/>

  <!-- Left person (back) -->
  <circle cx="14" cy="18" r="5.5" opacity="0.7"/>
  <path d="M14 25c-6 0-11 4.5-11 10v3c0 .8.7 1.5 1.5 1.5h19c.8 0 1.5-.7 1.5-1.5v-3c0-5.5-5-10-11-10z" opacity="0.7"/>

  <!-- Right person (back) -->
  <circle cx="50" cy="18" r="5.5" opacity="0.7"/>
  <path d="M50 25c-6 0-11 4.5-11 10v3c0 .8.7 1.5 1.5 1.5h19c.8 0 1.5-.7 1.5-1.5v-3c0-5.5-5-10-11-10z" opacity="0.7"/>
</svg>
