<svg xmlns="http://www.w3.org/2000/svg" width="32" height="32" viewBox="0 0 32 32" fill="none">
<path d="M16 0C13.8989 0 11.8182 0.413897 9.87703 1.21792C7.93582 2.02203 6.17207 3.20055 4.68626 4.68626C3.20055 6.17207 2.02203 7.93582 1.21792 9.87703C0.413897 11.8182 0 13.8989 0 16C0 18.1011 0.413897 20.1818 1.21792 22.123C2.02203 24.0642 3.20055 25.8279 4.68626 27.3137C6.17207 28.7994 7.93582 29.978 9.87703 30.7821C11.8182 31.5861 13.8989 32 16 32V24C14.9494 24 13.9091 23.7931 12.9385 23.391C11.9679 22.989 11.086 22.3997 10.3431 21.6569C9.60028 20.914 9.01102 20.0321 8.609 19.0615C8.2069 18.0909 8 17.0506 8 16C8 14.9494 8.2069 13.9091 8.609 12.9385C9.01102 11.9679 9.60028 11.086 10.3431 10.3431C11.086 9.60028 11.9679 9.01102 12.9385 8.609C13.9091 8.2069 14.9494 8 16 8V0Z" />
<path d="M15.9993 21.3336C18.9449 21.3336 21.3326 18.9458 21.3326 16.0003C21.3326 13.0547 18.9449 10.667 15.9993 10.667C13.0538 10.667 10.666 13.0547 10.666 16.0003C10.666 18.9458 13.0538 21.3336 15.9993 21.3336Z" />
<path d="M0 16C0 18.1011 0.413897 20.1818 1.21792 22.123C2.02203 24.0642 3.20055 25.8279 4.68626 27.3137C6.17207 28.7995 7.93582 29.978 9.87703 30.7821C11.8182 31.5861 13.8989 32 16 32C18.1011 32 20.1818 31.5861 22.123 30.7821C24.0642 29.978 25.8279 28.7995 27.3137 27.3137C28.7994 25.8279 29.978 24.0642 30.7821 22.123C31.5861 20.1818 32 18.1011 32 16H24C24 17.0506 23.7931 18.0909 23.391 19.0615C22.989 20.0321 22.3997 20.914 21.6569 21.6569C20.914 22.3997 20.0321 22.989 19.0615 23.391C18.0909 23.7931 17.0506 24 16 24C14.9494 24 13.9091 23.7931 12.9385 23.391C11.9679 22.989 11.086 22.3997 10.3431 21.6569C9.60028 20.914 9.01102 20.0321 8.609 19.0615C8.2069 18.0909 8 17.0506 8 16H0Z" />
<path d="M21.3327 16.0004C21.3327 14.5859 20.7708 13.2294 19.7707 12.2291C18.7704 11.2289 17.4139 10.667 15.9994 10.667C14.5849 10.667 13.2284 11.2289 12.2282 12.2291C11.2279 13.2294 10.666 14.5859 10.666 16.0004H15.9994H21.3327Z" />
</svg>